<?xml version="1.0" encoding="UTF-8" standalone="no"?>
<svg
   height="24px"
   width="24px"
   viewBox="0 -960 960 960"
   version="1.1"
   id="svg4"
   sodipodi:docname="specials.svg"
   inkscape:version="1.2.2 (b0a8486541, 2022-12-01)"
   xmlns:inkscape="http://www.inkscape.org/namespaces/inkscape"
   xmlns:sodipodi="http://sodipodi.sourceforge.net/DTD/sodipodi-0.dtd"
   xmlns="http://www.w3.org/2000/svg"
   xmlns:svg="http://www.w3.org/2000/svg">
  <defs
     id="defs8" />
  <sodipodi:namedview
     id="namedview6"
     pagecolor="#505050"
     bordercolor="#ffffff"
     borderopacity="1"
     inkscape:showpageshadow="0"
     inkscape:pageopacity="0"
     inkscape:pagecheckerboard="1"
     inkscape:deskcolor="#505050"
     showgrid="true"
     inkscape:zoom="41.955002"
     inkscape:cx="12.680252"
     inkscape:cy="12.97819"
     inkscape:window-width="1920"
     inkscape:window-height="1052"
     inkscape:window-x="0"
     inkscape:window-y="0"
     inkscape:window-maximized="1"
     inkscape:current-layer="text1004" />
  <path
     id="path2"
     d="M 160 -800 C 138.00002 -800 119.18228 -792.15103 103.51562 -776.48438 C 87.848974 -760.81772 80 -741.99998 80 -720 L 80 -240 C 80 -218.00002 87.848974 -199.18228 103.51562 -183.51562 C 119.18228 -167.84897 138.00002 -160 160 -160 L 800 -160 C 821.99998 -160 840.81772 -167.84897 856.48438 -183.51562 C 872.15103 -199.18228 880 -218.00002 880 -240 L 880 -720 C 880 -741.99998 872.15103 -760.81772 856.48438 -776.48438 C 840.81772 -792.15103 821.99998 -800 800 -800 L 160 -800 z M 160 -720 L 800 -720 L 800 -240 L 160 -240 L 160 -720 z "
     style="fill:#16b3bb;fill-opacity:1" />
  <g
     aria-label="#@"
     id="text1004"
     style="font-size:386.743px;line-height:1.25;font-family:'Public Sans';-inkscape-font-specification:'Public Sans, Normal';stroke-width:9.66856">
    <path
       d="m 356.72581,-339.41892 -29.77921,-4.0608 41.3815,-277.10137 29.58584,2.90057 z M 213.6309,-427.40296 v -29.39246 h 201.68648 v 29.39246 z m 60.91202,87.98404 -29.39247,-4.0608 41.38151,-277.10137 29.19909,2.90057 z m -48.53625,-167.26635 v -29.39247 h 201.68648 v 29.39247 z"
       id="path1056"
       style="fill:#16b3bb;fill-opacity:1" />
    <path
       d="m 603.0081,-339.41892 q -33.37402,0 -59.8495,-10.62748 -26.28903,-10.62749 -44.74729,-29.45864 -18.27181,-18.6447 -27.96706,-43.25572 -9.5088,-24.61101 -9.5088,-52.57806 0,-29.45863 10.25459,-55.56123 10.44103,-26.28904 30.01797,-46.42531 19.57694,-20.32273 46.98466,-31.696 27.59417,-11.55973 61.90042,-11.55973 24.61101,0 47.9169,6.71211 23.49233,6.71208 42.13703,20.88207 18.83116,14.16996 29.83153,36.35717 11.18683,22.00075 11.18683,52.95096 0,27.59416 -9.1359,48.84913 -8.94947,21.06852 -25.17036,33.00113 -16.2209,11.93261 -37.28942,11.93261 -15.848,0 -23.86522,-5.40697 -8.01722,-5.40695 -11.18682,-11.9326 -1.30513,-2.23736 -2.23737,-2.05092 -0.74578,0 -2.42381,2.05092 -8.01721,9.69524 -20.32272,16.22089 -12.30551,6.3392 -28.15351,6.3392 -15.47511,0 -27.96707,-7.83078 -12.49194,-8.01722 -19.94982,-22.56009 -7.27144,-14.54288 -7.085,-33.93336 0,-22.37364 8.94947,-41.5777 9.1359,-19.20404 25.54324,-30.76377 16.59379,-11.74615 38.96744,-11.74615 15.28865,0 24.23812,5.40695 8.94946,5.40698 15.28865,13.23775 0.74579,0.93224 1.67803,0.74578 0.93223,-0.37289 1.11867,-2.05091 l 2.05093,-8.01723 h 31.3231 l -13.42419,80.17224 q -2.23736,13.23774 1.11869,18.08536 3.35605,4.84763 10.06813,4.84763 8.76301,0 16.78025,-6.7121 8.01722,-6.89854 13.05129,-20.32273 5.22051,-13.61063 5.22051,-33.74691 0,-25.17035 -8.39011,-42.13704 -8.20368,-17.15313 -22.1872,-27.40772 -13.98354,-10.44103 -31.696,-15.10221 -17.52603,-4.66117 -35.98429,-4.66117 -29.83153,0 -51.64584,9.1359 -21.8143,9.13591 -35.98427,25.17035 -13.98353,15.84801 -21.06852,36.54363 -6.89853,20.69562 -6.89853,44.0015 0,25.17035 7.83077,45.30664 7.83077,19.94983 22.56009,34.11981 14.91576,14.16998 36.17073,21.44142 21.25497,7.45788 47.91689,7.45788 16.78024,0 28.33995,-2.98316 11.74617,-2.98315 20.88208,-8.01722 9.1359,-5.03407 18.27181,-11.18683 l 16.59378,22.18721 q -14.16996,11.37326 -37.47585,19.76338 -23.30589,8.39012 -52.57808,8.39012 z m -12.11905,-98.2576 q 10.62748,0 19.20404,-6.15275 8.57657,-6.3392 13.79708,-16.2209 5.22052,-10.06814 6.15275,-21.25496 0.93224,-11.55973 -2.42381,-20.32274 -3.35603,-8.763 -9.88169,-13.79706 -6.52564,-5.03408 -15.10221,-5.03408 -10.62748,0 -19.20404,6.52564 -8.39012,6.33921 -13.42419,17.15313 -5.03407,10.81393 -5.03407,24.05168 0,14.54286 6.3392,24.79745 6.52564,10.25459 19.57694,10.25459 z"
       id="path1058"
       style="stroke-width:9.32234;fill:#16b3bb;fill-opacity:1" />
  </g>
</svg>
