<svg viewBox="0 -960 960 960" width="24" height="24" xmlns="http://www.w3.org/2000/svg">
<path
    d=" m480-320 160-160-160-160-56 56 64 64
        H320
        v80
        h168
        l-64 64 56 56
        Z
        m0 240
        q-83 0-156-31.5
        T197-197
        q-54-54-85.5-127
        T80-480
        q0-83 31.5-156
        T197-763
        q54-54 127-85.5
        T480-880
        q83 0 156 31.5
        T763-763
        q54 54 85.5 127
        T880-480
        q0 83-31.5 156
        T763-197
        q-54 54-127 85.5
        T480-80
        Z
        m0-80
        q134 0 227-93
        t93-227
        q0-134-93-227
        t-227-93
        q-134 0-227 93
        t-93 227
        q0 134 93 227
        t227 93
        Z"/>
</svg>