<?xml version="1.0" encoding="UTF-8" standalone="no"?>
<svg
   height="24"
   viewBox="0 -960 1920 1920"
   width="24"
   version="1.1"
   id="svg4"
   sodipodi:docname="add_picture.svg"
   inkscape:version="1.1.2 (0a00cf5339, 2022-02-04)"
   xmlns:inkscape="http://www.inkscape.org/namespaces/inkscape"
   xmlns:sodipodi="http://sodipodi.sourceforge.net/DTD/sodipodi-0.dtd"
   xmlns="http://www.w3.org/2000/svg"
   xmlns:svg="http://www.w3.org/2000/svg">
  <defs
     id="defs8" />
  <sodipodi:namedview
     id="namedview6"
     pagecolor="#505050"
     bordercolor="#ffffff"
     borderopacity="1"
     inkscape:pageshadow="0"
     inkscape:pageopacity="0"
     inkscape:pagecheckerboard="1"
     showgrid="false"
     inkscape:snap-page="true"
     inkscape:snap-bbox="true"
     inkscape:snap-object-midpoints="true"
     inkscape:snap-center="true"
     inkscape:snap-intersection-paths="true"
     inkscape:object-paths="true"
     inkscape:snap-bbox-midpoints="true"
     inkscape:snap-bbox-edge-midpoints="true"
     inkscape:bbox-nodes="true"
     inkscape:bbox-paths="true"
     inkscape:snap-midpoints="true"
     inkscape:snap-smooth-nodes="true"
     inkscape:snap-text-baseline="true"
     inkscape:zoom="13.604167"
     inkscape:cx="8.2327718"
     inkscape:cy="3.2710567"
     inkscape:window-width="1920"
     inkscape:window-height="1048"
     inkscape:window-x="0"
     inkscape:window-y="0"
     inkscape:window-maximized="1"
     inkscape:current-layer="svg4" />
  <path
     d="m 931.88602,70.722139 z m -320,320.000021 q -33,0 -56.5,-23.5 -23.5,-23.5 -23.5,-56.50002 v -480 q 0,-33 23.5,-56.5 23.5,-23.5 56.5,-23.5 h 126 l 74,-80 H 1051.886 v 80 H 846.88602 l -73,80 h -162 v 480 H 1251.886 V -49.277861 h 80 V 310.72214 q 0,33.00002 -23.5,56.50002 -23.5,23.5 -56.5,23.5 z M 1251.886,-169.27786 v -80 h -80 v -80 h 80 v -80 h 80 v 80 h 80 v 80 h -80 v 80 z m -319.99998,420 q 74.99998,0 127.49998,-52.5 52.5,-52.5 52.5,-127.500001 0,-74.9999997 -52.5,-127.5 -52.5,-52.499999 -127.49998,-52.499999 -75,0 -127.5,52.499999 -52.5,52.5000003 -52.5,127.5 0,75.000001 52.5,127.500001 52.5,52.5 127.5,52.5 z m 0,-80 q -42,0 -71,-29 -29,-29 -29,-71.000001 0,-42 29,-70.99999971 29,-29.00000029 71,-29.00000029 42,0 70.99998,29.00000029 29,28.99999971 29,70.99999971 0,42.000001 -29,71.000001 -28.99998,29 -70.99998,29 z"
     id="path2"
     style="fill:#1d1c35;fill-opacity:1" />
  <rect
     style="fill:none;fill-opacity:0.287722;stroke:#1d1c35;stroke-width:69.5568;stroke-linecap:round;stroke-linejoin:round;stroke-miterlimit:4;stroke-dasharray:none;stroke-opacity:1;paint-order:stroke fill markers"
     id="rect1633"
     width="1669.3638"
     height="1669.3638"
     x="125.31814"
     y="-834.68188"
     ry="165.90443" />
</svg>
